<svg width="334" height="32" viewBox="0 0 334 32" fill="none" xmlns="http://www.w3.org/2000/svg">
<path d="M0.0227273 25V1.72727H9.20455C10.9697 1.72727 12.4735 2.06439 13.7159 2.73864C14.9583 3.4053 15.9053 4.33333 16.5568 5.52273C17.2159 6.70454 17.5455 8.06818 17.5455 9.61364C17.5455 11.1591 17.2121 12.5227 16.5455 13.7045C15.8788 14.8864 14.9129 15.8068 13.6477 16.4659C12.3902 17.125 10.8674 17.4545 9.07955 17.4545H3.22727V13.5114H8.28409C9.23106 13.5114 10.0114 13.3485 10.625 13.0227C11.2462 12.6894 11.7083 12.2311 12.0114 11.6477C12.322 11.0568 12.4773 10.3788 12.4773 9.61364C12.4773 8.84091 12.322 8.16667 12.0114 7.59091C11.7083 7.00757 11.2462 6.55682 10.625 6.23864C10.0038 5.91288 9.21591 5.75 8.26136 5.75H4.94318V25H0.0227273ZM25.1591 25.3295C24.0455 25.3295 23.053 25.1364 22.1818 24.75C21.3106 24.3561 20.6212 23.7765 20.1136 23.0114C19.6136 22.2386 19.3636 21.2765 19.3636 20.125C19.3636 19.1553 19.5417 18.3409 19.8977 17.6818C20.2538 17.0227 20.7386 16.4924 21.3523 16.0909C21.9659 15.6894 22.6629 15.3864 23.4432 15.1818C24.2311 14.9773 25.0568 14.8333 25.9205 14.75C26.9356 14.6439 27.7538 14.5455 28.375 14.4545C28.9962 14.3561 29.447 14.2121 29.7273 14.0227C30.0076 13.8333 30.1477 13.553 30.1477 13.1818V13.1136C30.1477 12.3939 29.9205 11.8371 29.4659 11.4432C29.0189 11.0492 28.3826 10.8523 27.5568 10.8523C26.6856 10.8523 25.9924 11.0455 25.4773 11.4318C24.9621 11.8106 24.6212 12.2879 24.4545 12.8636L19.9773 12.5C20.2045 11.4394 20.6515 10.5227 21.3182 9.75C21.9848 8.9697 22.8447 8.37121 23.8977 7.95454C24.9583 7.5303 26.1856 7.31818 27.5795 7.31818C28.5492 7.31818 29.4773 7.43182 30.3636 7.65909C31.2576 7.88636 32.0492 8.23864 32.7386 8.71591C33.4356 9.19318 33.9848 9.80682 34.3864 10.5568C34.7879 11.2992 34.9886 12.1894 34.9886 13.2273V25H30.3977V22.5795H30.2614C29.9811 23.125 29.6061 23.6061 29.1364 24.0227C28.6667 24.4318 28.1023 24.7538 27.4432 24.9886C26.7841 25.2159 26.0227 25.3295 25.1591 25.3295ZM26.5455 21.9886C27.2576 21.9886 27.8864 21.8485 28.4318 21.5682C28.9773 21.2803 29.4053 20.8939 29.7159 20.4091C30.0265 19.9242 30.1818 19.375 30.1818 18.7614V16.9091C30.0303 17.0076 29.822 17.0985 29.5568 17.1818C29.2992 17.2576 29.0076 17.3295 28.6818 17.3977C28.3561 17.4583 28.0303 17.5152 27.7045 17.5682C27.3788 17.6136 27.0833 17.6553 26.8182 17.6932C26.25 17.7765 25.7538 17.9091 25.3295 18.0909C24.9053 18.2727 24.5758 18.5189 24.3409 18.8295C24.1061 19.1326 23.9886 19.5114 23.9886 19.9659C23.9886 20.625 24.2273 21.1288 24.7045 21.4773C25.1894 21.8182 25.803 21.9886 26.5455 21.9886ZM38.7443 25V7.54545H43.4375V10.5909H43.6193C43.9375 9.50758 44.4716 8.68939 45.2216 8.13636C45.9716 7.57576 46.8352 7.29545 47.8125 7.29545C48.0549 7.29545 48.3163 7.31061 48.5966 7.34091C48.8769 7.37121 49.1231 7.41288 49.3352 7.46591V11.7614C49.108 11.6932 48.7936 11.6326 48.392 11.5795C47.9905 11.5265 47.6231 11.5 47.2898 11.5C46.5777 11.5 45.9413 11.6553 45.3807 11.9659C44.8277 12.2689 44.3883 12.6932 44.0625 13.2386C43.7443 13.7841 43.5852 14.4129 43.5852 15.125V25H38.7443ZM51.8381 25V7.54545H56.679V25H51.8381ZM54.2699 5.29545C53.5502 5.29545 52.9328 5.05682 52.4176 4.57954C51.91 4.0947 51.6562 3.51515 51.6562 2.84091C51.6562 2.17424 51.91 1.60227 52.4176 1.125C52.9328 0.640151 53.5502 0.397726 54.2699 0.397726C54.9896 0.397726 55.6032 0.640151 56.1108 1.125C56.6259 1.60227 56.8835 2.17424 56.8835 2.84091C56.8835 3.51515 56.6259 4.0947 56.1108 4.57954C55.6032 5.05682 54.9896 5.29545 54.2699 5.29545ZM65.3977 14.9091V25H60.5568V7.54545H65.1705V10.625H65.375C65.7614 9.60985 66.4091 8.80682 67.3182 8.21591C68.2273 7.61742 69.3295 7.31818 70.625 7.31818C71.8371 7.31818 72.8939 7.58333 73.7955 8.11364C74.697 8.64394 75.3977 9.40151 75.8977 10.3864C76.3977 11.3636 76.6477 12.5303 76.6477 13.8864V25H71.8068V14.75C71.8144 13.6818 71.5417 12.8485 70.9886 12.25C70.4356 11.6439 69.6742 11.3409 68.7045 11.3409C68.053 11.3409 67.4773 11.4811 66.9773 11.7614C66.4848 12.0417 66.0985 12.4508 65.8182 12.9886C65.5455 13.5189 65.4053 14.1591 65.3977 14.9091ZM89.7472 7.54545V11.1818H79.2358V7.54545H89.7472ZM81.6222 3.36364H86.4631V19.6364C86.4631 20.0833 86.5313 20.4318 86.6676 20.6818C86.804 20.9242 86.9934 21.0947 87.2358 21.1932C87.4858 21.2917 87.7737 21.3409 88.0994 21.3409C88.3267 21.3409 88.554 21.322 88.7812 21.2841C89.0085 21.2386 89.1828 21.2045 89.304 21.1818L90.0653 24.7841C89.8229 24.8598 89.482 24.947 89.0426 25.0455C88.6032 25.1515 88.0691 25.2159 87.4403 25.2386C86.2737 25.2841 85.2509 25.1288 84.3722 24.7727C83.5009 24.4167 82.8229 23.8636 82.3381 23.1136C81.8532 22.3636 81.6146 21.4167 81.6222 20.2727V3.36364ZM92.9006 25V7.54545H97.7415V25H92.9006ZM95.3324 5.29545C94.6127 5.29545 93.9953 5.05682 93.4801 4.57954C92.9725 4.0947 92.7188 3.51515 92.7188 2.84091C92.7188 2.17424 92.9725 1.60227 93.4801 1.125C93.9953 0.640151 94.6127 0.397726 95.3324 0.397726C96.0521 0.397726 96.6657 0.640151 97.1733 1.125C97.6884 1.60227 97.946 2.17424 97.946 2.84091C97.946 3.51515 97.6884 4.0947 97.1733 4.57954C96.6657 5.05682 96.0521 5.29545 95.3324 5.29545ZM106.46 14.9091V25H101.619V7.54545H106.233V10.625H106.438C106.824 9.60985 107.472 8.80682 108.381 8.21591C109.29 7.61742 110.392 7.31818 111.688 7.31818C112.9 7.31818 113.956 7.58333 114.858 8.11364C115.759 8.64394 116.46 9.40151 116.96 10.3864C117.46 11.3636 117.71 12.5303 117.71 13.8864V25H112.869V14.75C112.877 13.6818 112.604 12.8485 112.051 12.25C111.498 11.6439 110.737 11.3409 109.767 11.3409C109.116 11.3409 108.54 11.4811 108.04 11.7614C107.547 12.0417 107.161 12.4508 106.881 12.9886C106.608 13.5189 106.468 14.1591 106.46 14.9091ZM136.048 12.5227L131.616 12.7955C131.541 12.4167 131.378 12.0758 131.128 11.7727C130.878 11.4621 130.548 11.2159 130.139 11.0341C129.738 10.8447 129.257 10.75 128.696 10.75C127.946 10.75 127.313 10.9091 126.798 11.2273C126.283 11.5379 126.026 11.9545 126.026 12.4773C126.026 12.8939 126.192 13.2462 126.526 13.5341C126.859 13.822 127.431 14.053 128.241 14.2273L131.401 14.8636C133.098 15.2121 134.363 15.7727 135.196 16.5455C136.029 17.3182 136.446 18.3333 136.446 19.5909C136.446 20.7348 136.109 21.7386 135.435 22.6023C134.768 23.4659 133.851 24.1402 132.685 24.625C131.526 25.1023 130.188 25.3409 128.673 25.3409C126.363 25.3409 124.522 24.8598 123.151 23.8977C121.787 22.928 120.988 21.6098 120.753 19.9432L125.514 19.6932C125.658 20.3977 126.007 20.9356 126.56 21.3068C127.113 21.6705 127.821 21.8523 128.685 21.8523C129.533 21.8523 130.215 21.6894 130.73 21.3636C131.253 21.0303 131.518 20.6023 131.526 20.0795C131.518 19.6402 131.332 19.2803 130.969 19C130.605 18.7121 130.045 18.4924 129.287 18.3409L126.264 17.7386C124.56 17.3977 123.291 16.8068 122.457 15.9659C121.632 15.125 121.219 14.053 121.219 12.75C121.219 11.6288 121.522 10.6629 122.128 9.85227C122.741 9.04167 123.601 8.41667 124.707 7.97727C125.821 7.53788 127.124 7.31818 128.616 7.31818C130.821 7.31818 132.556 7.78409 133.821 8.71591C135.094 9.64773 135.836 10.9167 136.048 12.5227ZM159.616 8.42045C159.526 7.50379 159.135 6.79167 158.446 6.28409C157.757 5.77651 156.821 5.52273 155.639 5.52273C154.836 5.52273 154.158 5.63636 153.605 5.86364C153.052 6.08333 152.628 6.39015 152.332 6.78409C152.045 7.17803 151.901 7.625 151.901 8.125C151.885 8.54167 151.973 8.9053 152.162 9.21591C152.359 9.52652 152.628 9.79545 152.969 10.0227C153.31 10.2424 153.704 10.4356 154.151 10.6023C154.598 10.7614 155.075 10.8977 155.582 11.0114L157.673 11.5114C158.688 11.7386 159.62 12.0417 160.469 12.4205C161.317 12.7992 162.052 13.2652 162.673 13.8182C163.295 14.3712 163.776 15.0227 164.116 15.7727C164.465 16.5227 164.643 17.3826 164.651 18.3523C164.643 19.7765 164.279 21.0114 163.56 22.0568C162.848 23.0947 161.817 23.9015 160.469 24.4773C159.128 25.0455 157.51 25.3295 155.616 25.3295C153.738 25.3295 152.101 25.0417 150.707 24.4659C149.321 23.8902 148.238 23.0379 147.457 21.9091C146.685 20.7727 146.279 19.3674 146.241 17.6932H151.003C151.056 18.4735 151.279 19.125 151.673 19.6477C152.075 20.1629 152.609 20.553 153.276 20.8182C153.95 21.0758 154.711 21.2045 155.56 21.2045C156.393 21.2045 157.116 21.0833 157.73 20.8409C158.351 20.5985 158.832 20.2614 159.173 19.8295C159.514 19.3977 159.685 18.9015 159.685 18.3409C159.685 17.8182 159.529 17.3788 159.219 17.0227C158.916 16.6667 158.469 16.3636 157.878 16.1136C157.295 15.8636 156.579 15.6364 155.73 15.4318L153.196 14.7955C151.234 14.3182 149.685 13.572 148.548 12.5568C147.412 11.5417 146.848 10.1742 146.855 8.45454C146.848 7.04545 147.223 5.81439 147.98 4.76136C148.745 3.70833 149.795 2.88636 151.128 2.29545C152.461 1.70454 153.976 1.40909 155.673 1.40909C157.401 1.40909 158.908 1.70454 160.196 2.29545C161.491 2.88636 162.499 3.70833 163.219 4.76136C163.938 5.81439 164.31 7.03409 164.332 8.42045H159.616ZM172.71 14.9091V25H167.869V1.72727H172.574V10.625H172.778C173.172 9.5947 173.809 8.78788 174.688 8.20454C175.566 7.61364 176.669 7.31818 177.994 7.31818C179.206 7.31818 180.263 7.58333 181.165 8.11364C182.074 8.63636 182.778 9.39015 183.278 10.375C183.786 11.3523 184.036 12.5227 184.028 13.8864V25H179.188V14.75C179.195 13.6742 178.922 12.8371 178.369 12.2386C177.824 11.6402 177.059 11.3409 176.074 11.3409C175.415 11.3409 174.831 11.4811 174.324 11.7614C173.824 12.0417 173.43 12.4508 173.142 12.9886C172.862 13.5189 172.718 14.1591 172.71 14.9091ZM195.724 25.3409C193.959 25.3409 192.433 24.9659 191.145 24.2159C189.865 23.4583 188.876 22.4053 188.179 21.0568C187.482 19.7008 187.134 18.1288 187.134 16.3409C187.134 14.5379 187.482 12.9621 188.179 11.6136C188.876 10.2576 189.865 9.20454 191.145 8.45454C192.433 7.69697 193.959 7.31818 195.724 7.31818C197.49 7.31818 199.012 7.69697 200.293 8.45454C201.58 9.20454 202.573 10.2576 203.27 11.6136C203.967 12.9621 204.315 14.5379 204.315 16.3409C204.315 18.1288 203.967 19.7008 203.27 21.0568C202.573 22.4053 201.58 23.4583 200.293 24.2159C199.012 24.9659 197.49 25.3409 195.724 25.3409ZM195.747 21.5909C196.55 21.5909 197.221 21.3636 197.759 20.9091C198.296 20.447 198.702 19.8182 198.974 19.0227C199.255 18.2273 199.395 17.322 199.395 16.3068C199.395 15.2917 199.255 14.3864 198.974 13.5909C198.702 12.7955 198.296 12.1667 197.759 11.7045C197.221 11.2424 196.55 11.0114 195.747 11.0114C194.937 11.0114 194.255 11.2424 193.702 11.7045C193.156 12.1667 192.743 12.7955 192.463 13.5909C192.19 14.3864 192.054 15.2917 192.054 16.3068C192.054 17.322 192.19 18.2273 192.463 19.0227C192.743 19.8182 193.156 20.447 193.702 20.9091C194.255 21.3636 194.937 21.5909 195.747 21.5909ZM210.469 25L205.719 7.54545H210.616L213.321 19.2727H213.48L216.298 7.54545H221.105L223.969 19.2045H224.116L226.776 7.54545H231.662L226.923 25H221.798L218.798 14.0227H218.582L215.582 25H210.469ZM241.741 25V1.72727H257.151V5.78409H246.662V11.3295H256.128V15.3864H246.662V25H241.741ZM266.974 25.3409C265.209 25.3409 263.683 24.9659 262.395 24.2159C261.115 23.4583 260.126 22.4053 259.429 21.0568C258.732 19.7008 258.384 18.1288 258.384 16.3409C258.384 14.5379 258.732 12.9621 259.429 11.6136C260.126 10.2576 261.115 9.20454 262.395 8.45454C263.683 7.69697 265.209 7.31818 266.974 7.31818C268.74 7.31818 270.262 7.69697 271.543 8.45454C272.83 9.20454 273.823 10.2576 274.52 11.6136C275.217 12.9621 275.565 14.5379 275.565 16.3409C275.565 18.1288 275.217 19.7008 274.52 21.0568C273.823 22.4053 272.83 23.4583 271.543 24.2159C270.262 24.9659 268.74 25.3409 266.974 25.3409ZM266.997 21.5909C267.8 21.5909 268.471 21.3636 269.009 20.9091C269.546 20.447 269.952 19.8182 270.224 19.0227C270.505 18.2273 270.645 17.322 270.645 16.3068C270.645 15.2917 270.505 14.3864 270.224 13.5909C269.952 12.7955 269.546 12.1667 269.009 11.7045C268.471 11.2424 267.8 11.0114 266.997 11.0114C266.187 11.0114 265.505 11.2424 264.952 11.7045C264.406 12.1667 263.993 12.7955 263.713 13.5909C263.44 14.3864 263.304 15.2917 263.304 16.3068C263.304 17.322 263.44 18.2273 263.713 19.0227C263.993 19.8182 264.406 20.447 264.952 20.9091C265.505 21.3636 266.187 21.5909 266.997 21.5909ZM286.577 31.9091C285.009 31.9091 283.664 31.6932 282.543 31.2614C281.429 30.8371 280.543 30.2576 279.884 29.5227C279.224 28.7879 278.796 27.9621 278.599 27.0455L283.077 26.4432C283.213 26.7917 283.429 27.1174 283.724 27.4205C284.02 27.7235 284.41 27.9659 284.895 28.1477C285.387 28.3371 285.986 28.4318 286.69 28.4318C287.743 28.4318 288.611 28.1742 289.293 27.6591C289.982 27.1515 290.327 26.2992 290.327 25.1023V21.9091H290.122C289.91 22.3939 289.592 22.8523 289.168 23.2841C288.743 23.7159 288.198 24.0682 287.531 24.3409C286.865 24.6136 286.069 24.75 285.145 24.75C283.834 24.75 282.641 24.447 281.565 23.8409C280.497 23.2273 279.645 22.2917 279.009 21.0341C278.38 19.7689 278.065 18.1705 278.065 16.2386C278.065 14.2614 278.387 12.6098 279.031 11.2841C279.675 9.95833 280.531 8.96591 281.599 8.30682C282.675 7.64773 283.853 7.31818 285.134 7.31818C286.111 7.31818 286.929 7.48485 287.588 7.81818C288.247 8.14394 288.777 8.55303 289.179 9.04545C289.588 9.5303 289.902 10.0076 290.122 10.4773H290.304V7.54545H295.111V25.1705C295.111 26.6553 294.747 27.8977 294.02 28.8977C293.293 29.8977 292.285 30.6477 290.997 31.1477C289.717 31.6553 288.243 31.9091 286.577 31.9091ZM286.679 21.1136C287.459 21.1136 288.118 20.9205 288.656 20.5341C289.202 20.1402 289.618 19.5795 289.906 18.8523C290.202 18.1174 290.349 17.2386 290.349 16.2159C290.349 15.1932 290.205 14.3068 289.918 13.5568C289.63 12.7992 289.213 12.2121 288.668 11.7955C288.122 11.3788 287.459 11.1705 286.679 11.1705C285.884 11.1705 285.213 11.3864 284.668 11.8182C284.122 12.2424 283.709 12.8333 283.429 13.5909C283.149 14.3485 283.009 15.2235 283.009 16.2159C283.009 17.2235 283.149 18.0947 283.429 18.8295C283.717 19.5568 284.13 20.1212 284.668 20.5227C285.213 20.9167 285.884 21.1136 286.679 21.1136ZM306.849 25.3409C305.084 25.3409 303.558 24.9659 302.27 24.2159C300.99 23.4583 300.001 22.4053 299.304 21.0568C298.607 19.7008 298.259 18.1288 298.259 16.3409C298.259 14.5379 298.607 12.9621 299.304 11.6136C300.001 10.2576 300.99 9.20454 302.27 8.45454C303.558 7.69697 305.084 7.31818 306.849 7.31818C308.615 7.31818 310.137 7.69697 311.418 8.45454C312.705 9.20454 313.698 10.2576 314.395 11.6136C315.092 12.9621 315.44 14.5379 315.44 16.3409C315.44 18.1288 315.092 19.7008 314.395 21.0568C313.698 22.4053 312.705 23.4583 311.418 24.2159C310.137 24.9659 308.615 25.3409 306.849 25.3409ZM306.872 21.5909C307.675 21.5909 308.346 21.3636 308.884 20.9091C309.421 20.447 309.827 19.8182 310.099 19.0227C310.38 18.2273 310.52 17.322 310.52 16.3068C310.52 15.2917 310.38 14.3864 310.099 13.5909C309.827 12.7955 309.421 12.1667 308.884 11.7045C308.346 11.2424 307.675 11.0114 306.872 11.0114C306.062 11.0114 305.38 11.2424 304.827 11.7045C304.281 12.1667 303.868 12.7955 303.588 13.5909C303.315 14.3864 303.179 15.2917 303.179 16.3068C303.179 17.322 303.315 18.2273 303.588 19.0227C303.868 19.8182 304.281 20.447 304.827 20.9091C305.38 21.3636 306.062 21.5909 306.872 21.5909ZM333.111 12.5227L328.679 12.7955C328.603 12.4167 328.44 12.0758 328.19 11.7727C327.94 11.4621 327.611 11.2159 327.202 11.0341C326.8 10.8447 326.319 10.75 325.759 10.75C325.009 10.75 324.376 10.9091 323.861 11.2273C323.346 11.5379 323.088 11.9545 323.088 12.4773C323.088 12.8939 323.255 13.2462 323.588 13.5341C323.921 13.822 324.493 14.053 325.304 14.2273L328.463 14.8636C330.16 15.2121 331.425 15.7727 332.259 16.5455C333.092 17.3182 333.509 18.3333 333.509 19.5909C333.509 20.7348 333.171 21.7386 332.497 22.6023C331.83 23.4659 330.914 24.1402 329.747 24.625C328.588 25.1023 327.251 25.3409 325.736 25.3409C323.425 25.3409 321.584 24.8598 320.213 23.8977C318.849 22.928 318.05 21.6098 317.815 19.9432L322.577 19.6932C322.721 20.3977 323.069 20.9356 323.622 21.3068C324.175 21.6705 324.884 21.8523 325.747 21.8523C326.596 21.8523 327.277 21.6894 327.793 21.3636C328.315 21.0303 328.58 20.6023 328.588 20.0795C328.58 19.6402 328.395 19.2803 328.031 19C327.668 18.7121 327.107 18.4924 326.349 18.3409L323.327 17.7386C321.622 17.3977 320.353 16.8068 319.52 15.9659C318.694 15.125 318.281 14.053 318.281 12.75C318.281 11.6288 318.584 10.6629 319.19 9.85227C319.804 9.04167 320.664 8.41667 321.77 7.97727C322.884 7.53788 324.187 7.31818 325.679 7.31818C327.884 7.31818 329.618 7.78409 330.884 8.71591C332.156 9.64773 332.899 10.9167 333.111 12.5227Z" fill="url(#paint0_linear_161_26)"/>
<defs>
<linearGradient id="paint0_linear_161_26" x1="-2" y1="13" x2="335" y2="13" gradientUnits="userSpaceOnUse">
<stop stop-color="#E91C22"/>
<stop offset="0.509208" stop-color="#FFEF04"/>
<stop offset="1" stop-color="#0053F5"/>
</linearGradient>
</defs>
</svg>
