<svg width="300" height="300" viewBox="0 0 300 300" fill="none" xmlns="http://www.w3.org/2000/svg">
<rect width="300" height="300" fill="#FFFAFA" fill-opacity="0.5"/>
<path d="M173.625 128.25V123C173.624 122.079 173.381 121.175 172.92 120.378C172.46 119.581 171.797 118.919 171 118.458L152.625 107.958C151.827 107.498 150.922 107.255 150 107.255C149.078 107.255 148.173 107.498 147.375 107.958L129 118.458C128.203 118.919 127.54 119.581 127.08 120.378C126.619 121.175 126.376 122.079 126.375 123V144C126.376 144.92 126.619 145.825 127.08 146.622C127.54 147.419 128.203 148.081 129 148.541L147.375 159.041C148.173 159.502 149.078 159.744 150 159.744C150.922 159.744 151.827 159.502 152.625 159.041L157.875 156.048" stroke="black" stroke-width="5.25" stroke-linecap="round" stroke-linejoin="round"/>
<path d="M138.188 113.209L161.812 126.727" stroke="black" stroke-width="5.25" stroke-linecap="round" stroke-linejoin="round"/>
<path d="M127.136 120.375L150 133.5L172.864 120.375" stroke="black" stroke-width="5.25" stroke-linecap="round" stroke-linejoin="round"/>
<path d="M150 159.75V133.5" stroke="black" stroke-width="5.25" stroke-linecap="round" stroke-linejoin="round"/>
<path d="M167.062 149.25C170.687 149.25 173.625 146.312 173.625 142.688C173.625 139.063 170.687 136.125 167.062 136.125C163.438 136.125 160.5 139.063 160.5 142.688C160.5 146.312 163.438 149.25 167.062 149.25Z" stroke="black" stroke-width="5.25" stroke-linecap="round" stroke-linejoin="round"/>
<path d="M171.709 147.334L176.25 151.875" stroke="black" stroke-width="5.25" stroke-linecap="round" stroke-linejoin="round"/>
<path d="M74.6232 187.746C74.5835 187.345 74.4128 187.034 74.1112 186.812C73.8095 186.59 73.4002 186.479 72.8832 186.479C72.5318 186.479 72.2352 186.528 71.9933 186.628C71.7513 186.724 71.5657 186.858 71.4364 187.031C71.3105 187.203 71.2475 187.398 71.2475 187.617C71.2409 187.799 71.279 187.959 71.3619 188.094C71.448 188.23 71.5657 188.348 71.7148 188.447C71.864 188.544 72.0363 188.628 72.2319 188.701C72.4274 188.771 72.6362 188.83 72.8583 188.88L73.7731 189.099C74.2172 189.198 74.6249 189.331 74.9961 189.496C75.3673 189.662 75.6888 189.866 75.9606 190.108C76.2324 190.35 76.4428 190.635 76.592 190.963C76.7444 191.291 76.8223 191.667 76.8256 192.092C76.8223 192.715 76.6632 193.255 76.3484 193.712C76.0368 194.166 75.5861 194.519 74.9961 194.771C74.4094 195.02 73.7018 195.144 72.8732 195.144C72.0513 195.144 71.3353 195.018 70.7255 194.766C70.119 194.514 69.645 194.142 69.3036 193.648C68.9656 193.151 68.7882 192.536 68.7717 191.803H70.8548C70.878 192.145 70.9757 192.43 71.1481 192.658C71.3237 192.884 71.5574 193.054 71.8491 193.17C72.1441 193.283 72.4772 193.339 72.8484 193.339C73.2129 193.339 73.5295 193.286 73.7979 193.18C74.0697 193.074 74.2802 192.927 74.4293 192.738C74.5785 192.549 74.6531 192.332 74.6531 192.087C74.6531 191.858 74.5851 191.666 74.4492 191.51C74.3166 191.354 74.1211 191.222 73.8626 191.112C73.6074 191.003 73.2942 190.903 72.9229 190.814L71.8143 190.536C70.9558 190.327 70.2781 190 69.7809 189.556C69.2837 189.112 69.0368 188.514 69.0401 187.761C69.0368 187.145 69.2009 186.606 69.5323 186.146C69.8671 185.685 70.3261 185.325 70.9094 185.067C71.4928 184.808 72.1557 184.679 72.8981 184.679C73.6538 184.679 74.3133 184.808 74.8768 185.067C75.4435 185.325 75.8844 185.685 76.1992 186.146C76.5141 186.606 76.6765 187.14 76.6864 187.746H74.6232ZM81.714 195.149C80.9284 195.149 80.2523 194.99 79.6855 194.672C79.1221 194.35 78.6879 193.896 78.383 193.31C78.0781 192.72 77.9256 192.022 77.9256 191.217C77.9256 190.431 78.0781 189.742 78.383 189.148C78.6879 188.555 79.1171 188.093 79.6706 187.761C80.2275 187.43 80.8804 187.264 81.6294 187.264C82.1332 187.264 82.6022 187.345 83.0364 187.508C83.4739 187.667 83.8551 187.907 84.1799 188.229C84.508 188.55 84.7632 188.955 84.9455 189.442C85.1278 189.926 85.2189 190.492 85.2189 191.142V191.724H78.7708V190.411H83.2253C83.2253 190.106 83.159 189.836 83.0265 189.601C82.8939 189.366 82.7099 189.182 82.4746 189.049C82.2426 188.913 81.9725 188.845 81.6642 188.845C81.3427 188.845 81.0577 188.92 80.8091 189.069C80.5639 189.215 80.3716 189.412 80.2324 189.661C80.0932 189.906 80.022 190.179 80.0186 190.481V191.729C80.0186 192.107 80.0882 192.433 80.2275 192.708C80.37 192.983 80.5705 193.195 80.829 193.344C81.0875 193.494 81.3941 193.568 81.7488 193.568C81.9841 193.568 82.1995 193.535 82.3951 193.469C82.5906 193.402 82.758 193.303 82.8972 193.17C83.0364 193.038 83.1425 192.875 83.2154 192.683L85.1742 192.812C85.0748 193.283 84.8709 193.694 84.5627 194.045C84.2578 194.393 83.8633 194.665 83.3794 194.861C82.8989 195.053 82.3437 195.149 81.714 195.149ZM86.601 195V187.364H88.6195V188.711H88.709C88.8681 188.263 89.1332 187.911 89.5044 187.652C89.8757 187.393 90.3198 187.264 90.8368 187.264C91.3605 187.264 91.8063 187.395 92.1742 187.657C92.5421 187.915 92.7873 188.267 92.91 188.711H92.9895C93.1453 188.273 93.427 187.924 93.8347 187.662C94.2457 187.397 94.7312 187.264 95.2914 187.264C96.004 187.264 96.5823 187.491 97.0265 187.945C97.4739 188.396 97.6976 189.036 97.6976 189.864V195H95.5847V190.282C95.5847 189.858 95.472 189.54 95.2466 189.327C95.0212 189.115 94.7395 189.009 94.4015 189.009C94.017 189.009 93.717 189.132 93.5016 189.377C93.2862 189.619 93.1784 189.939 93.1784 190.337V195H91.1252V190.237C91.1252 189.863 91.0175 189.564 90.802 189.342C90.5899 189.12 90.3098 189.009 89.9618 189.009C89.7265 189.009 89.5144 189.069 89.3255 189.188C89.1399 189.304 88.9924 189.468 88.883 189.68C88.7736 189.889 88.7189 190.134 88.7189 190.416V195H86.601ZM104.803 184.818V195H102.651V184.818H104.803ZM106.535 195V187.364H108.553V188.711H108.643C108.802 188.263 109.067 187.911 109.438 187.652C109.809 187.393 110.253 187.264 110.77 187.264C111.294 187.264 111.74 187.395 112.108 187.657C112.476 187.915 112.721 188.267 112.844 188.711H112.923C113.079 188.273 113.361 187.924 113.768 187.662C114.179 187.397 114.665 187.264 115.225 187.264C115.938 187.264 116.516 187.491 116.96 187.945C117.407 188.396 117.631 189.036 117.631 189.864V195H115.518V190.282C115.518 189.858 115.406 189.54 115.18 189.327C114.955 189.115 114.673 189.009 114.335 189.009C113.951 189.009 113.651 189.132 113.435 189.377C113.22 189.619 113.112 189.939 113.112 190.337V195H111.059V190.237C111.059 189.863 110.951 189.564 110.736 189.342C110.523 189.12 110.243 189.009 109.895 189.009C109.66 189.009 109.448 189.069 109.259 189.188C109.073 189.304 108.926 189.468 108.817 189.68C108.707 189.889 108.653 190.134 108.653 190.416V195H106.535ZM121.482 195.144C120.994 195.144 120.56 195.06 120.179 194.891C119.798 194.718 119.496 194.465 119.274 194.13C119.056 193.792 118.946 193.371 118.946 192.867C118.946 192.443 119.024 192.087 119.18 191.798C119.336 191.51 119.548 191.278 119.816 191.102C120.085 190.927 120.39 190.794 120.731 190.705C121.076 190.615 121.437 190.552 121.815 190.516C122.259 190.469 122.617 190.426 122.889 190.386C123.16 190.343 123.358 190.28 123.48 190.197C123.603 190.115 123.664 189.992 123.664 189.83V189.8C123.664 189.485 123.565 189.241 123.366 189.069C123.17 188.897 122.892 188.81 122.531 188.81C122.15 188.81 121.846 188.895 121.621 189.064C121.396 189.23 121.246 189.438 121.173 189.69L119.215 189.531C119.314 189.067 119.51 188.666 119.801 188.328C120.093 187.987 120.469 187.725 120.93 187.543C121.394 187.357 121.931 187.264 122.541 187.264C122.965 187.264 123.371 187.314 123.759 187.413C124.15 187.513 124.496 187.667 124.798 187.876C125.103 188.085 125.343 188.353 125.519 188.681C125.694 189.006 125.782 189.395 125.782 189.849V195H123.774V193.941H123.714C123.591 194.18 123.427 194.39 123.222 194.572C123.016 194.751 122.769 194.892 122.481 194.995C122.193 195.094 121.86 195.144 121.482 195.144ZM122.088 193.683C122.4 193.683 122.675 193.621 122.914 193.499C123.152 193.373 123.339 193.204 123.475 192.991C123.611 192.779 123.679 192.539 123.679 192.271V191.46C123.613 191.503 123.522 191.543 123.406 191.58C123.293 191.613 123.165 191.644 123.023 191.674C122.88 191.701 122.738 191.725 122.595 191.749C122.453 191.768 122.324 191.787 122.208 191.803C121.959 191.84 121.742 191.898 121.556 191.977C121.371 192.057 121.227 192.165 121.124 192.3C121.021 192.433 120.97 192.599 120.97 192.798C120.97 193.086 121.074 193.306 121.283 193.459C121.495 193.608 121.763 193.683 122.088 193.683ZM130.866 198.023C130.18 198.023 129.591 197.928 129.101 197.739C128.613 197.554 128.226 197.3 127.937 196.979C127.649 196.657 127.462 196.296 127.376 195.895L129.334 195.631C129.394 195.784 129.488 195.926 129.618 196.059C129.747 196.192 129.918 196.298 130.13 196.377C130.345 196.46 130.607 196.501 130.915 196.501C131.376 196.501 131.756 196.389 132.054 196.163C132.355 195.941 132.506 195.568 132.506 195.045V193.648H132.417C132.324 193.86 132.185 194.06 131.999 194.249C131.814 194.438 131.575 194.592 131.283 194.712C130.992 194.831 130.644 194.891 130.239 194.891C129.666 194.891 129.144 194.758 128.673 194.493C128.206 194.224 127.833 193.815 127.555 193.265C127.279 192.711 127.142 192.012 127.142 191.167C127.142 190.302 127.283 189.579 127.564 188.999C127.846 188.419 128.221 187.985 128.688 187.697C129.159 187.408 129.674 187.264 130.234 187.264C130.662 187.264 131.02 187.337 131.308 187.483C131.596 187.625 131.828 187.804 132.004 188.02C132.183 188.232 132.321 188.441 132.417 188.646H132.496V187.364H134.599V195.075C134.599 195.724 134.44 196.268 134.122 196.705C133.804 197.143 133.363 197.471 132.8 197.69C132.239 197.912 131.595 198.023 130.866 198.023ZM130.91 193.3C131.252 193.3 131.54 193.215 131.775 193.046C132.014 192.874 132.196 192.629 132.322 192.31C132.452 191.989 132.516 191.604 132.516 191.157C132.516 190.71 132.453 190.322 132.327 189.994C132.201 189.662 132.019 189.405 131.78 189.223C131.542 189.041 131.252 188.95 130.91 188.95C130.562 188.95 130.269 189.044 130.03 189.233C129.792 189.419 129.611 189.677 129.488 190.009C129.366 190.34 129.305 190.723 129.305 191.157C129.305 191.598 129.366 191.979 129.488 192.3C129.614 192.619 129.795 192.866 130.03 193.041C130.269 193.214 130.562 193.3 130.91 193.3ZM139.765 195.149C138.979 195.149 138.303 194.99 137.736 194.672C137.173 194.35 136.739 193.896 136.434 193.31C136.129 192.72 135.976 192.022 135.976 191.217C135.976 190.431 136.129 189.742 136.434 189.148C136.739 188.555 137.168 188.093 137.721 187.761C138.278 187.43 138.931 187.264 139.68 187.264C140.184 187.264 140.653 187.345 141.087 187.508C141.525 187.667 141.906 187.907 142.231 188.229C142.559 188.55 142.814 188.955 142.996 189.442C143.179 189.926 143.27 190.492 143.27 191.142V191.724H136.822V190.411H141.276C141.276 190.106 141.21 189.836 141.077 189.601C140.945 189.366 140.761 189.182 140.525 189.049C140.293 188.913 140.023 188.845 139.715 188.845C139.394 188.845 139.108 188.92 138.86 189.069C138.615 189.215 138.422 189.412 138.283 189.661C138.144 189.906 138.073 190.179 138.069 190.481V191.729C138.069 192.107 138.139 192.433 138.278 192.708C138.421 192.983 138.621 193.195 138.88 193.344C139.138 193.494 139.445 193.568 139.8 193.568C140.035 193.568 140.25 193.535 140.446 193.469C140.641 193.402 140.809 193.303 140.948 193.17C141.087 193.038 141.193 192.875 141.266 192.683L143.225 192.812C143.126 193.283 142.922 193.694 142.613 194.045C142.309 194.393 141.914 194.665 141.43 194.861C140.95 195.053 140.394 195.149 139.765 195.149ZM144.652 195V187.364H146.67V188.711H146.76C146.919 188.263 147.184 187.911 147.555 187.652C147.926 187.393 148.371 187.264 148.888 187.264C149.411 187.264 149.857 187.395 150.225 187.657C150.593 187.915 150.838 188.267 150.961 188.711H151.04C151.196 188.273 151.478 187.924 151.885 187.662C152.296 187.397 152.782 187.264 153.342 187.264C154.055 187.264 154.633 187.491 155.077 187.945C155.525 188.396 155.748 189.036 155.748 189.864V195H153.635V190.282C153.635 189.858 153.523 189.54 153.297 189.327C153.072 189.115 152.79 189.009 152.452 189.009C152.068 189.009 151.768 189.132 151.552 189.377C151.337 189.619 151.229 189.939 151.229 190.337V195H149.176V190.237C149.176 189.863 149.068 189.564 148.853 189.342C148.641 189.12 148.361 189.009 148.013 189.009C147.777 189.009 147.565 189.069 147.376 189.188C147.191 189.304 147.043 189.468 146.934 189.68C146.824 189.889 146.77 190.134 146.77 190.416V195H144.652ZM164.311 195H160.701V184.818H164.341C165.365 184.818 166.246 185.022 166.985 185.43C167.725 185.834 168.293 186.416 168.691 187.175C169.092 187.934 169.292 188.842 169.292 189.899C169.292 190.96 169.092 191.871 168.691 192.634C168.293 193.396 167.721 193.981 166.975 194.388C166.233 194.796 165.345 195 164.311 195ZM162.854 193.156H164.221C164.858 193.156 165.393 193.043 165.827 192.817C166.265 192.589 166.593 192.236 166.811 191.759C167.033 191.278 167.145 190.658 167.145 189.899C167.145 189.147 167.033 188.532 166.811 188.055C166.593 187.577 166.266 187.226 165.832 187.001C165.398 186.775 164.863 186.663 164.226 186.663H162.854V193.156ZM170.847 195V187.364H172.965V195H170.847ZM171.911 186.379C171.596 186.379 171.326 186.275 171.101 186.066C170.879 185.854 170.768 185.6 170.768 185.305C170.768 185.014 170.879 184.763 171.101 184.555C171.326 184.343 171.596 184.237 171.911 184.237C172.226 184.237 172.494 184.343 172.716 184.555C172.942 184.763 173.055 185.014 173.055 185.305C173.055 185.6 172.942 185.854 172.716 186.066C172.494 186.275 172.226 186.379 171.911 186.379ZM181.015 189.541L179.076 189.661C179.043 189.495 178.972 189.346 178.863 189.213C178.753 189.077 178.609 188.969 178.43 188.89C178.254 188.807 178.044 188.766 177.799 188.766C177.471 188.766 177.194 188.835 176.968 188.974C176.743 189.11 176.63 189.293 176.63 189.521C176.63 189.704 176.703 189.858 176.849 189.984C176.995 190.11 177.245 190.211 177.6 190.287L178.982 190.565C179.724 190.718 180.278 190.963 180.642 191.301C181.007 191.639 181.189 192.083 181.189 192.634C181.189 193.134 181.042 193.573 180.747 193.951C180.455 194.329 180.054 194.624 179.544 194.836C179.037 195.045 178.452 195.149 177.789 195.149C176.778 195.149 175.972 194.939 175.373 194.518C174.776 194.094 174.426 193.517 174.324 192.788L176.407 192.678C176.47 192.987 176.622 193.222 176.864 193.384C177.106 193.543 177.416 193.623 177.794 193.623C178.165 193.623 178.463 193.552 178.689 193.409C178.917 193.263 179.033 193.076 179.037 192.847C179.033 192.655 178.952 192.498 178.793 192.375C178.634 192.249 178.389 192.153 178.057 192.087L176.735 191.823C175.989 191.674 175.434 191.415 175.069 191.048C174.708 190.68 174.527 190.211 174.527 189.641C174.527 189.15 174.66 188.728 174.925 188.373C175.194 188.018 175.57 187.745 176.054 187.553C176.541 187.36 177.111 187.264 177.764 187.264C178.728 187.264 179.487 187.468 180.041 187.876C180.598 188.283 180.922 188.839 181.015 189.541ZM182.523 197.864V187.364H184.611V188.646H184.705C184.798 188.441 184.932 188.232 185.108 188.02C185.287 187.804 185.519 187.625 185.804 187.483C186.093 187.337 186.45 187.264 186.878 187.264C187.435 187.264 187.949 187.41 188.419 187.702C188.89 187.99 189.266 188.426 189.548 189.009C189.829 189.589 189.97 190.317 189.97 191.192C189.97 192.044 189.833 192.763 189.558 193.349C189.286 193.933 188.915 194.375 188.444 194.677C187.977 194.975 187.453 195.124 186.873 195.124C186.462 195.124 186.112 195.056 185.824 194.92C185.539 194.785 185.305 194.614 185.123 194.408C184.941 194.2 184.802 193.989 184.705 193.777H184.641V197.864H182.523ZM184.596 191.182C184.596 191.636 184.659 192.032 184.785 192.37C184.911 192.708 185.093 192.972 185.332 193.161C185.57 193.346 185.86 193.439 186.202 193.439C186.547 193.439 186.838 193.344 187.077 193.156C187.316 192.963 187.496 192.698 187.619 192.36C187.745 192.019 187.808 191.626 187.808 191.182C187.808 190.741 187.746 190.353 187.624 190.018C187.501 189.684 187.32 189.422 187.082 189.233C186.843 189.044 186.55 188.95 186.202 188.95C185.857 188.95 185.566 189.041 185.327 189.223C185.092 189.405 184.911 189.664 184.785 189.999C184.659 190.333 184.596 190.728 184.596 191.182ZM194.833 195.149C194.06 195.149 193.392 194.985 192.829 194.657C192.269 194.326 191.836 193.865 191.531 193.275C191.227 192.682 191.074 191.994 191.074 191.212C191.074 190.423 191.227 189.733 191.531 189.143C191.836 188.55 192.269 188.089 192.829 187.761C193.392 187.43 194.06 187.264 194.833 187.264C195.605 187.264 196.271 187.43 196.831 187.761C197.395 188.089 197.829 188.55 198.134 189.143C198.439 189.733 198.591 190.423 198.591 191.212C198.591 191.994 198.439 192.682 198.134 193.275C197.829 193.865 197.395 194.326 196.831 194.657C196.271 194.985 195.605 195.149 194.833 195.149ZM194.843 193.509C195.194 193.509 195.487 193.409 195.722 193.21C195.958 193.008 196.135 192.733 196.254 192.385C196.377 192.037 196.438 191.641 196.438 191.197C196.438 190.753 196.377 190.357 196.254 190.009C196.135 189.661 195.958 189.385 195.722 189.183C195.487 188.981 195.194 188.88 194.843 188.88C194.488 188.88 194.19 188.981 193.948 189.183C193.709 189.385 193.528 189.661 193.406 190.009C193.286 190.357 193.227 190.753 193.227 191.197C193.227 191.641 193.286 192.037 193.406 192.385C193.528 192.733 193.709 193.008 193.948 193.21C194.19 193.409 194.488 193.509 194.843 193.509ZM202.086 190.585V195H199.968V187.364H201.987V188.711H202.076C202.245 188.267 202.529 187.915 202.926 187.657C203.324 187.395 203.806 187.264 204.373 187.264C204.903 187.264 205.366 187.38 205.76 187.612C206.155 187.844 206.461 188.176 206.68 188.607C206.899 189.034 207.008 189.545 207.008 190.138V195H204.89V190.516C204.893 190.048 204.774 189.684 204.532 189.422C204.29 189.157 203.957 189.024 203.533 189.024C203.248 189.024 202.996 189.085 202.777 189.208C202.562 189.331 202.393 189.51 202.27 189.745C202.151 189.977 202.089 190.257 202.086 190.585ZM208.677 195V187.364H210.795V195H208.677ZM208.98 186.379L210.034 184.117H211.993L210.477 186.379H208.98ZM219.611 187.364L216.941 195H214.555L211.885 187.364H214.122L215.708 192.827H215.788L217.369 187.364H219.611ZM223.929 195.149C223.143 195.149 222.467 194.99 221.9 194.672C221.337 194.35 220.903 193.896 220.598 193.31C220.293 192.72 220.14 192.022 220.14 191.217C220.14 190.431 220.293 189.742 220.598 189.148C220.903 188.555 221.332 188.093 221.885 187.761C222.442 187.43 223.095 187.264 223.844 187.264C224.348 187.264 224.817 187.345 225.251 187.508C225.689 187.667 226.07 187.907 226.395 188.229C226.723 188.55 226.978 188.955 227.16 189.442C227.343 189.926 227.434 190.492 227.434 191.142V191.724H220.986V190.411H225.44C225.44 190.106 225.374 189.836 225.241 189.601C225.109 189.366 224.925 189.182 224.689 189.049C224.457 188.913 224.187 188.845 223.879 188.845C223.558 188.845 223.273 188.92 223.024 189.069C222.779 189.215 222.586 189.412 222.447 189.661C222.308 189.906 222.237 190.179 222.233 190.481V191.729C222.233 192.107 222.303 192.433 222.442 192.708C222.585 192.983 222.785 193.195 223.044 193.344C223.302 193.494 223.609 193.568 223.964 193.568C224.199 193.568 224.414 193.535 224.61 193.469C224.805 193.402 224.973 193.303 225.112 193.17C225.251 193.038 225.357 192.875 225.43 192.683L227.389 192.812C227.29 193.283 227.086 193.694 226.778 194.045C226.473 194.393 226.078 194.665 225.594 194.861C225.114 195.053 224.559 195.149 223.929 195.149ZM230.934 184.818V195H228.816V184.818H230.934Z" fill="black"/>
</svg>
